<?xml version="1.0" standalone="no"?>
<!DOCTYPE svg PUBLIC "-//W3C//DTD SVG 20010904//EN"
 "http://www.w3.org/TR/2001/REC-SVG-20010904/DTD/svg10.dtd">
<svg version="1.0" xmlns="http://www.w3.org/2000/svg"
 width="32.000000pt" height="32.000000pt" viewBox="0 0 32.000000 32.000000"
 preserveAspectRatio="xMidYMid meet">

<g transform="translate(0.000000,32.000000) scale(0.100000,-0.100000)"
fill="#000000" stroke="none">
<path d="M62 274 c15 -15 30 -26 33 -23 2 3 -10 16 -28 29 l-32 23 27 -29z"/>
<path d="M47 243 c-12 -11 -7 -47 8 -67 18 -24 20 -13 3 14 -10 16 -10 24 0
40 11 19 4 28 -11 13z"/>
<path d="M94 228 c-4 -7 -3 -8 5 -4 6 4 20 2 29 -6 15 -12 16 -11 3 5 -16 20
-27 22 -37 5z"/>
<path d="M75 90 c23 -26 29 -26 13 0 -7 11 -17 20 -22 20 -5 0 -1 -9 9 -20z"/>
</g>
</svg>
