<?xml version="1.0" standalone="no"?>
<!DOCTYPE svg PUBLIC "-//W3C//DTD SVG 20010904//EN"
 "http://www.w3.org/TR/2001/REC-SVG-20010904/DTD/svg10.dtd">
<svg version="1.0" xmlns="http://www.w3.org/2000/svg"
 width="150.000000pt" height="150.000000pt" viewBox="0 0 150.000000 150.000000"
 preserveAspectRatio="xMidYMid meet">

<g transform="translate(0.000000,150.000000) scale(0.100000,-0.100000)"
fill="#000000" stroke="none">
<path d="M610 1486 c-147 -32 -264 -93 -371 -193 -188 -178 -272 -429 -225
-675 32 -167 103 -295 227 -412 89 -84 212 -152 329 -183 88 -24 272 -24 360
0 232 61 436 241 517 456 68 182 68 360 0 542 -62 164 -200 315 -360 394 -51
25 -119 52 -152 61 -84 22 -245 27 -325 10z m490 -341 c0 -2 -20 -23 -45 -47
l-46 -41 51 -52 c47 -48 50 -54 50 -102 0 -40 -5 -58 -25 -81 -23 -27 -25 -38
-25 -128 l0 -99 -77 -77 -78 -78 -156 0 -156 0 -72 75 c-69 73 -71 77 -69 123
l1 47 4 -45 c3 -24 10 -51 16 -59 10 -11 13 3 18 70 l5 84 2 -88 2 -88 53 -49
52 -49 145 -1 146 0 47 48 48 49 -3 89 -3 89 -91 3 -90 3 -24 -51 c-13 -27
-26 -50 -30 -50 -4 0 -17 23 -30 50 l-23 50 -96 1 c-81 1 -89 3 -51 10 25 4
68 8 95 8 48 1 51 3 72 43 l23 41 -38 33 c-20 18 -39 33 -42 34 -4 0 -4 -16
-2 -35 4 -31 2 -35 -19 -34 -13 1 -35 5 -49 9 -22 7 -21 8 13 9 36 1 37 2 37
38 0 26 -8 46 -27 67 -32 35 -16 23 74 -53 l63 -53 95 83 c52 46 95 87 95 91
0 4 -31 8 -68 8 l-69 0 -23 -50 c-13 -27 -26 -50 -30 -50 -4 0 -17 22 -30 49
-21 47 -26 50 -64 54 l-41 4 46 1 c43 2 46 0 62 -33 9 -19 20 -35 24 -35 5 0
17 17 28 38 l20 37 94 3 95 3 47 44 c42 40 69 55 69 40z m-400 -795 c0 -6 -40
-10 -100 -10 -60 0 -100 4 -100 10 0 6 40 10 100 10 60 0 100 -4 100 -10z
m300 0 c0 -6 -40 -10 -100 -10 -60 0 -100 4 -100 10 0 6 40 10 100 10 60 0
100 -4 100 -10z"/>
<path d="M948 1005 c-21 -20 -38 -37 -38 -40 0 -3 11 -5 25 -5 24 0 25 -3 25
-60 l0 -60 -60 0 -60 0 0 30 c0 36 -7 37 -42 5 -33 -29 -34 -40 -8 -82 l20
-33 94 0 94 0 46 54 c37 44 46 61 46 93 0 33 -7 46 -48 86 -26 26 -50 47 -52
47 -3 0 -22 -16 -42 -35z"/>
<path d="M867 933 c-4 -3 -7 -21 -7 -40 0 -32 1 -33 40 -33 l40 0 0 40 c0 39
-1 40 -33 40 -19 0 -37 -3 -40 -7z"/>
<path d="M727 785 c-15 -32 -15 -36 1 -65 9 -16 20 -30 23 -30 3 0 12 15 21
33 14 29 14 35 0 65 -9 17 -18 32 -22 32 -3 0 -14 -16 -23 -35z"/>
<path d="M1017 753 c-11 -10 -8 -163 2 -163 5 0 11 38 13 85 3 81 0 94 -15 78z"/>
</g>
</svg>
